<svg xmlns="http://www.w3.org/2000/svg" width="640" height="360" viewBox="0 0 640 360"><defs><linearGradient id="bg" x1="0" y1="0" x2="1" y2="1"><stop offset="0" stop-color="#101010"/><stop offset="0.58" stop-color="#4a1010"/><stop offset="1" stop-color="#ff7a18"/></linearGradient><radialGradient id="light" cx="40%" cy="18%" r="70%"><stop offset="0" stop-color="#fff" stop-opacity=".48"/><stop offset=".42" stop-color="#fff" stop-opacity=".12"/><stop offset="1" stop-color="#000" stop-opacity="0"/></radialGradient><linearGradient id="fade" x1="0" y1="0" x2="0" y2="1"><stop offset="0" stop-color="#000" stop-opacity="0"/><stop offset=".72" stop-color="#000" stop-opacity=".18"/><stop offset="1" stop-color="#000" stop-opacity=".82"/></linearGradient><filter id="soft"><feGaussianBlur stdDeviation="8"/></filter><filter id="shadow"><feDropShadow dx="0" dy="8" stdDeviation="10" flood-color="#000" flood-opacity=".38"/></filter></defs><rect width="640" height="360" fill="url(#bg)"/><rect width="640" height="360" fill="url(#light)"/><path d="M0 264 C120 264 210 266 340 266 S520 226 640 235 V360 H0Z" fill="#000" opacity=".25"/><circle cx="254" cy="72" r="58" fill="#fff" opacity=".18" filter="url(#soft)"/><rect x="38" y="52" width="560" height="224" fill="none" stroke="#fff" stroke-opacity=".16" stroke-width="3"/><g filter="url(#shadow)" opacity=".94"><ellipse cx="268" cy="160" rx="48" ry="58" fill="#f7d2bd"/><path d="M198 318 C214 230 318 230 336 318Z" fill="#1f2937"/><path d="M213 126 C232 78 310 82 326 128 C296 104 244 102 213 126Z" fill="#1b1717"/><ellipse cx="363" cy="168" rx="42" ry="54" fill="#f3c4aa"/><path d="M301 318 C313 242 413 238 429 318Z" fill="#7f1d1d"/><path d="M314 134 C333 88 401 86 411 136 C381 112 339 114 314 134Z" fill="#2a1814"/></g><rect width="640" height="360" fill="url(#fade)"/><text x="28" y="286" font-family="Microsoft YaHei, PingFang SC, Arial, sans-serif" font-size="30" font-weight="900" fill="#fff" filter="url(#shadow)">封神第一部</text><text x="28" y="322" font-family="Microsoft YaHei, PingFang SC, Arial, sans-serif" font-size="18" font-weight="700" fill="#e5e7eb">电影 · 2023 · 动作 / 冒险</text><text x="610" y="322" text-anchor="end" font-family="Microsoft YaHei, PingFang SC, Arial, sans-serif" font-size="18" font-weight="800" fill="#fff">全22集</text></svg>