<svg xmlns="http://www.w3.org/2000/svg" width="640" height="360" viewBox="0 0 640 360"><defs><linearGradient id="bg" x1="0" y1="0" x2="1" y2="1"><stop offset="0" stop-color="#151a20"/><stop offset="0.58" stop-color="#3a4a5a"/><stop offset="1" stop-color="#d7c7a3"/></linearGradient><radialGradient id="light" cx="50%" cy="18%" r="70%"><stop offset="0" stop-color="#fff" stop-opacity=".48"/><stop offset=".42" stop-color="#fff" stop-opacity=".12"/><stop offset="1" stop-color="#000" stop-opacity="0"/></radialGradient><linearGradient id="fade" x1="0" y1="0" x2="0" y2="1"><stop offset="0" stop-color="#000" stop-opacity="0"/><stop offset=".72" stop-color="#000" stop-opacity=".18"/><stop offset="1" stop-color="#000" stop-opacity=".82"/></linearGradient><filter id="soft"><feGaussianBlur stdDeviation="8"/></filter><filter id="shadow"><feDropShadow dx="0" dy="8" stdDeviation="10" flood-color="#000" flood-opacity=".38"/></filter></defs><rect width="640" height="360" fill="url(#bg)"/><rect width="640" height="360" fill="url(#light)"/><path d="M0 252 C120 216 210 254 340 230 S520 208 640 251 V360 H0Z" fill="#000" opacity=".25"/><circle cx="321" cy="72" r="58" fill="#fff" opacity=".18" filter="url(#soft)"/><rect x="38" y="52" width="560" height="224" fill="none" stroke="#fff" stroke-opacity=".16" stroke-width="3"/><g filter="url(#shadow)" opacity=".94"><ellipse cx="317" cy="160" rx="48" ry="58" fill="#f7d2bd"/><path d="M247 318 C263 230 367 230 385 318Z" fill="#1f2937"/><path d="M262 126 C281 78 359 82 375 128 C345 104 293 102 262 126Z" fill="#1b1717"/><ellipse cx="412" cy="168" rx="42" ry="54" fill="#f3c4aa"/><path d="M350 318 C362 242 462 238 478 318Z" fill="#7f1d1d"/><path d="M363 134 C382 88 450 86 460 136 C430 112 388 114 363 134Z" fill="#2a1814"/></g><rect width="640" height="360" fill="url(#fade)"/><text x="28" y="286" font-family="Microsoft YaHei, PingFang SC, Arial, sans-serif" font-size="30" font-weight="900" fill="#fff" filter="url(#shadow)">奥本海默</text><text x="28" y="322" font-family="Microsoft YaHei, PingFang SC, Arial, sans-serif" font-size="18" font-weight="700" fill="#e5e7eb">电影 · 2023 · 剧情 / 历史</text><text x="610" y="322" text-anchor="end" font-family="Microsoft YaHei, PingFang SC, Arial, sans-serif" font-size="18" font-weight="800" fill="#fff">全29集</text><rect x="548" y="18" width="70" height="30" rx="6" fill="#ff5f18"/><text x="583" y="39" text-anchor="middle" font-family="Microsoft YaHei, Arial" font-size="15" font-weight="800" fill="#fff">限免中</text></svg>