<svg xmlns="http://www.w3.org/2000/svg" width="640" height="360" viewBox="0 0 640 360"><defs><linearGradient id="bg" x1="0" y1="0" x2="1" y2="1"><stop offset="0" stop-color="#101113"/><stop offset="0.58" stop-color="#2f3136"/><stop offset="1" stop-color="#9ca3af"/></linearGradient><radialGradient id="light" cx="52%" cy="18%" r="70%"><stop offset="0" stop-color="#fff" stop-opacity=".48"/><stop offset=".42" stop-color="#fff" stop-opacity=".12"/><stop offset="1" stop-color="#000" stop-opacity="0"/></radialGradient><linearGradient id="fade" x1="0" y1="0" x2="0" y2="1"><stop offset="0" stop-color="#000" stop-opacity="0"/><stop offset=".72" stop-color="#000" stop-opacity=".18"/><stop offset="1" stop-color="#000" stop-opacity=".82"/></linearGradient><filter id="soft"><feGaussianBlur stdDeviation="8"/></filter><filter id="shadow"><feDropShadow dx="0" dy="8" stdDeviation="10" flood-color="#000" flood-opacity=".38"/></filter></defs><rect width="640" height="360" fill="url(#bg)"/><rect width="640" height="360" fill="url(#light)"/><path d="M0 276 C120 248 210 254 340 230 S520 244 640 251 V360 H0Z" fill="#000" opacity=".25"/><circle cx="333" cy="72" r="58" fill="#fff" opacity=".18" filter="url(#soft)"/><rect x="38" y="52" width="560" height="224" fill="none" stroke="#fff" stroke-opacity=".16" stroke-width="3"/><g filter="url(#shadow)" opacity=".94"><ellipse cx="281" cy="160" rx="48" ry="58" fill="#f7d2bd"/><path d="M211 318 C227 230 331 230 349 318Z" fill="#1f2937"/><path d="M226 126 C245 78 323 82 339 128 C309 104 257 102 226 126Z" fill="#1b1717"/><ellipse cx="376" cy="168" rx="42" ry="54" fill="#f3c4aa"/><path d="M314 318 C326 242 426 238 442 318Z" fill="#7f1d1d"/><path d="M327 134 C346 88 414 86 424 136 C394 112 352 114 327 134Z" fill="#2a1814"/></g><rect width="640" height="360" fill="url(#fade)"/><text x="28" y="286" font-family="Microsoft YaHei, PingFang SC, Arial, sans-serif" font-size="30" font-weight="900" fill="#fff" filter="url(#shadow)">隐秘的角落</text><text x="28" y="322" font-family="Microsoft YaHei, PingFang SC, Arial, sans-serif" font-size="18" font-weight="700" fill="#e5e7eb">剧集 · 2020 · 悬疑 / 犯罪</text><text x="610" y="322" text-anchor="end" font-family="Microsoft YaHei, PingFang SC, Arial, sans-serif" font-size="18" font-weight="800" fill="#fff">全11集</text><rect x="548" y="18" width="70" height="30" rx="6" fill="#ff5f18"/><text x="583" y="39" text-anchor="middle" font-family="Microsoft YaHei, Arial" font-size="15" font-weight="800" fill="#fff">限免中</text></svg>