<svg xmlns="http://www.w3.org/2000/svg" width="640" height="360" viewBox="0 0 640 360"><defs><linearGradient id="bg" x1="0" y1="0" x2="1" y2="1"><stop offset="0" stop-color="#251527"/><stop offset="0.58" stop-color="#6d2a5a"/><stop offset="1" stop-color="#ff9ccf"/></linearGradient><radialGradient id="light" cx="38%" cy="18%" r="70%"><stop offset="0" stop-color="#fff" stop-opacity=".48"/><stop offset=".42" stop-color="#fff" stop-opacity=".12"/><stop offset="1" stop-color="#000" stop-opacity="0"/></radialGradient><linearGradient id="fade" x1="0" y1="0" x2="0" y2="1"><stop offset="0" stop-color="#000" stop-opacity="0"/><stop offset=".72" stop-color="#000" stop-opacity=".18"/><stop offset="1" stop-color="#000" stop-opacity=".82"/></linearGradient><filter id="soft"><feGaussianBlur stdDeviation="8"/></filter><filter id="shadow"><feDropShadow dx="0" dy="8" stdDeviation="10" flood-color="#000" flood-opacity=".38"/></filter></defs><rect width="640" height="360" fill="url(#bg)"/><rect width="640" height="360" fill="url(#light)"/><path d="M0 240 C120 232 210 266 340 266 S520 190 640 235 V360 H0Z" fill="#000" opacity=".25"/><circle cx="242" cy="72" r="58" fill="#fff" opacity=".18" filter="url(#soft)"/><rect x="38" y="52" width="560" height="224" fill="none" stroke="#fff" stroke-opacity=".16" stroke-width="3"/><g filter="url(#shadow)" opacity=".94"><ellipse cx="304" cy="160" rx="48" ry="58" fill="#f7d2bd"/><path d="M234 318 C250 230 354 230 372 318Z" fill="#1f2937"/><path d="M249 126 C268 78 346 82 362 128 C332 104 280 102 249 126Z" fill="#1b1717"/><ellipse cx="399" cy="168" rx="42" ry="54" fill="#f3c4aa"/><path d="M337 318 C349 242 449 238 465 318Z" fill="#7f1d1d"/><path d="M350 134 C369 88 437 86 447 136 C417 112 375 114 350 134Z" fill="#2a1814"/></g><rect width="640" height="360" fill="url(#fade)"/><text x="28" y="286" font-family="Microsoft YaHei, PingFang SC, Arial, sans-serif" font-size="30" font-weight="900" fill="#fff" filter="url(#shadow)">你好，星期六</text><text x="28" y="322" font-family="Microsoft YaHei, PingFang SC, Arial, sans-serif" font-size="18" font-weight="700" fill="#e5e7eb">综艺 · 2022 · 综艺 / 真人秀</text><text x="610" y="322" text-anchor="end" font-family="Microsoft YaHei, PingFang SC, Arial, sans-serif" font-size="18" font-weight="800" fill="#fff">全40集</text><rect x="548" y="18" width="70" height="30" rx="6" fill="#ff5f18"/><text x="583" y="39" text-anchor="middle" font-family="Microsoft YaHei, Arial" font-size="15" font-weight="800" fill="#fff">上新</text></svg>