<svg xmlns="http://www.w3.org/2000/svg" width="640" height="360" viewBox="0 0 640 360"><defs><linearGradient id="bg" x1="0" y1="0" x2="1" y2="1"><stop offset="0" stop-color="#251527"/><stop offset="0.58" stop-color="#6d2a5a"/><stop offset="1" stop-color="#ff9ccf"/></linearGradient><radialGradient id="light" cx="60%" cy="18%" r="70%"><stop offset="0" stop-color="#fff" stop-opacity=".48"/><stop offset=".42" stop-color="#fff" stop-opacity=".12"/><stop offset="1" stop-color="#000" stop-opacity="0"/></radialGradient><linearGradient id="fade" x1="0" y1="0" x2="0" y2="1"><stop offset="0" stop-color="#000" stop-opacity="0"/><stop offset=".72" stop-color="#000" stop-opacity=".18"/><stop offset="1" stop-color="#000" stop-opacity=".82"/></linearGradient><filter id="soft"><feGaussianBlur stdDeviation="8"/></filter><filter id="shadow"><feDropShadow dx="0" dy="8" stdDeviation="10" flood-color="#000" flood-opacity=".38"/></filter></defs><rect width="640" height="360" fill="url(#bg)"/><rect width="640" height="360" fill="url(#light)"/><path d="M0 264 C120 264 210 242 340 248 S520 226 640 235 V360 H0Z" fill="#000" opacity=".25"/><circle cx="384" cy="72" r="58" fill="#fff" opacity=".18" filter="url(#soft)"/><rect x="38" y="52" width="560" height="224" fill="none" stroke="#fff" stroke-opacity=".16" stroke-width="3"/><g filter="url(#shadow)" opacity=".94"><ellipse cx="378" cy="160" rx="48" ry="58" fill="#f7d2bd"/><path d="M308 318 C324 230 428 230 446 318Z" fill="#1f2937"/><path d="M323 126 C342 78 420 82 436 128 C406 104 354 102 323 126Z" fill="#1b1717"/><ellipse cx="473" cy="168" rx="42" ry="54" fill="#f3c4aa"/><path d="M411 318 C423 242 523 238 539 318Z" fill="#7f1d1d"/><path d="M424 134 C443 88 511 86 521 136 C491 112 449 114 424 134Z" fill="#2a1814"/></g><rect width="640" height="360" fill="url(#fade)"/><text x="28" y="286" font-family="Microsoft YaHei, PingFang SC, Arial, sans-serif" font-size="30" font-weight="900" fill="#fff" filter="url(#shadow)">快乐再出发</text><text x="28" y="322" font-family="Microsoft YaHei, PingFang SC, Arial, sans-serif" font-size="18" font-weight="700" fill="#e5e7eb">综艺 · 2022 · 综艺 / 真人秀</text><text x="610" y="322" text-anchor="end" font-family="Microsoft YaHei, PingFang SC, Arial, sans-serif" font-size="18" font-weight="800" fill="#fff">全42集</text></svg>