<svg xmlns="http://www.w3.org/2000/svg" width="640" height="360" viewBox="0 0 640 360"><defs><linearGradient id="bg" x1="0" y1="0" x2="1" y2="1"><stop offset="0" stop-color="#160f12"/><stop offset="0.58" stop-color="#54212d"/><stop offset="1" stop-color="#ff5f6d"/></linearGradient><radialGradient id="light" cx="82%" cy="18%" r="70%"><stop offset="0" stop-color="#fff" stop-opacity=".48"/><stop offset=".42" stop-color="#fff" stop-opacity=".12"/><stop offset="1" stop-color="#000" stop-opacity="0"/></radialGradient><linearGradient id="fade" x1="0" y1="0" x2="0" y2="1"><stop offset="0" stop-color="#000" stop-opacity="0"/><stop offset=".72" stop-color="#000" stop-opacity=".18"/><stop offset="1" stop-color="#000" stop-opacity=".82"/></linearGradient><filter id="soft"><feGaussianBlur stdDeviation="8"/></filter><filter id="shadow"><feDropShadow dx="0" dy="8" stdDeviation="10" flood-color="#000" flood-opacity=".38"/></filter></defs><rect width="640" height="360" fill="url(#bg)"/><rect width="640" height="360" fill="url(#light)"/><path d="M0 240 C120 216 210 290 340 230 S520 190 640 235 V360 H0Z" fill="#000" opacity=".25"/><circle cx="526" cy="72" r="58" fill="#fff" opacity=".18" filter="url(#soft)"/><rect x="38" y="52" width="560" height="224" fill="none" stroke="#fff" stroke-opacity=".16" stroke-width="3"/><g filter="url(#shadow)" opacity=".94"><ellipse cx="242" cy="160" rx="48" ry="58" fill="#f7d2bd"/><path d="M172 318 C188 230 292 230 310 318Z" fill="#1f2937"/><path d="M187 126 C206 78 284 82 300 128 C270 104 218 102 187 126Z" fill="#1b1717"/><ellipse cx="337" cy="168" rx="42" ry="54" fill="#f3c4aa"/><path d="M275 318 C287 242 387 238 403 318Z" fill="#7f1d1d"/><path d="M288 134 C307 88 375 86 385 136 C355 112 313 114 288 134Z" fill="#2a1814"/></g><rect width="640" height="360" fill="url(#fade)"/><text x="28" y="286" font-family="Microsoft YaHei, PingFang SC, Arial, sans-serif" font-size="30" font-weight="900" fill="#fff" filter="url(#shadow)">红果短剧</text><text x="28" y="322" font-family="Microsoft YaHei, PingFang SC, Arial, sans-serif" font-size="18" font-weight="700" fill="#e5e7eb">短剧 · 2024 · 短剧 / 甜宠</text><text x="610" y="322" text-anchor="end" font-family="Microsoft YaHei, PingFang SC, Arial, sans-serif" font-size="18" font-weight="800" fill="#fff">全44集</text><rect x="548" y="18" width="70" height="30" rx="6" fill="#ff5f18"/><text x="583" y="39" text-anchor="middle" font-family="Microsoft YaHei, Arial" font-size="15" font-weight="800" fill="#fff">上新</text></svg>